<svg width="49" height="37" viewBox="0 0 49 37" fill="none" xmlns="http://www.w3.org/2000/svg">
<path d="M46.1889 0.0331546L23.4086 0.921987C22.1673 0.970419 20.9581 1.39417 19.9588 2.13097L1.60654 15.6572C0.0577761 16.7985 0.862128 19.0936 2.78452 19.0185L6.75597 18.8635C6.3101 20.1116 6.24218 21.4674 6.64953 22.7833C6.08215 23.4391 5.83962 24.3487 6.14684 25.2253C6.42538 26.0201 7.07851 26.542 7.83148 26.7583L8.91751 35.8879C9.01196 36.6818 9.81724 37.1844 10.5715 36.9201L14.7084 35.4703C15.4634 35.2057 15.7788 34.3104 15.357 33.6312L10.5064 25.8209C10.9596 25.1819 11.144 24.3664 10.8655 23.5716C10.5665 22.7186 9.83939 22.1721 9.01661 21.9952C8.68455 20.8681 8.90765 19.6906 9.59327 18.7532L25.565 18.1304C26.3049 18.1012 27.6759 17.908 29.0148 16.9214L47.3671 3.39519C48.9163 2.25289 48.1123 -0.0415456 46.1889 0.0331546ZM30.4983 18.9339C28.6211 20.3169 26.7037 20.5882 25.6624 20.6286L13.8191 21.0911L15.7053 29.8228C16.6187 32.4291 23.6967 32.3203 31.5149 29.5804C39.3331 26.8405 44.9305 22.5071 44.0172 19.9008L40.0398 11.9012L30.4983 18.9339Z" fill="#9BBFB6"/>
</svg>
