<svg width="30" height="23" viewBox="0 0 30 23" fill="none" xmlns="http://www.w3.org/2000/svg">
<path d="M29.4316 7.42969C29.6602 7.24805 30 7.41797 30 7.70508V19.6875C30 21.2402 28.7402 22.5 27.1875 22.5H2.8125C1.25977 22.5 0 21.2402 0 19.6875V7.71094C0 7.41797 0.333984 7.25391 0.568359 7.43555C1.88086 8.45508 3.62109 9.75 9.59766 14.0918C10.834 14.9941 12.9199 16.8926 15 16.8809C17.0918 16.8984 19.2188 14.959 20.4082 14.0918C26.3848 9.75 28.1191 8.44922 29.4316 7.42969ZM15 15C16.3594 15.0234 18.3164 13.2891 19.3008 12.5742C27.0762 6.93164 27.668 6.43945 29.4609 5.0332C29.8008 4.76953 30 4.35938 30 3.92578V2.8125C30 1.25977 28.7402 0 27.1875 0H2.8125C1.25977 0 0 1.25977 0 2.8125V3.92578C0 4.35938 0.199219 4.76367 0.539062 5.0332C2.33203 6.43359 2.92383 6.93164 10.6992 12.5742C11.6836 13.2891 13.6406 15.0234 15 15Z" fill="#D4E09B"/>
</svg>
