<svg width="50" height="40" viewBox="0 0 50 40" fill="none" xmlns="http://www.w3.org/2000/svg">
<path d="M19.9242 20.4414C20.4125 20.9297 21.2039 20.9297 21.6922 20.4414L22.5758 19.5578C23.0641 19.0695 23.0641 18.2781 22.5758 17.7898L19.7852 15L22.575 12.2094C23.0633 11.7211 23.0633 10.9297 22.575 10.4414L21.6914 9.55781C21.2031 9.06953 20.4117 9.06953 19.9234 9.55781L15.3656 14.1156C14.8773 14.6039 14.8773 15.3953 15.3656 15.8836L19.9242 20.4414V20.4414ZM27.425 19.5586L28.3086 20.4422C28.7969 20.9305 29.5883 20.9305 30.0766 20.4422L34.6344 15.8844C35.1227 15.3961 35.1227 14.6047 34.6344 14.1164L30.0766 9.55859C29.5883 9.07031 28.7969 9.07031 28.3086 9.55859L27.425 10.4422C26.9367 10.9305 26.9367 11.7219 27.425 12.2102L30.2148 15L27.425 17.7906C26.9367 18.2789 26.9367 19.0703 27.425 19.5586V19.5586ZM48.75 32.5H29.8078C29.75 34.0477 28.6586 35 27.25 35H22.5C21.0398 35 19.9203 33.6352 19.9398 32.5H1.25C0.5625 32.5 0 33.0625 0 33.75V35C0 37.75 2.25 40 5 40H45C47.75 40 50 37.75 50 35V33.75C50 33.0625 49.4375 32.5 48.75 32.5ZM45 3.75C45 1.6875 43.3125 0 41.25 0H8.75C6.6875 0 5 1.6875 5 3.75V30H45V3.75ZM40 25H10V5H40V25Z" fill="#9BBFB6"/>
</svg>
