<svg width="50" height="44" viewBox="0 0 50 44" fill="none" xmlns="http://www.w3.org/2000/svg">
<path d="M49.085 17.835L44.666 13.416C44.0801 12.8301 43.2852 12.501 42.4561 12.501H37.5V4.6875C37.5 2.09863 35.4014 0 32.8125 0H17.1875C14.5986 0 12.5 2.09863 12.5 4.6875V12.5H7.54395C6.71484 12.5 5.9209 12.8291 5.33398 13.415L0.915039 17.835C0.329102 18.4209 0 19.2158 0 20.0449V28.125H12.5V26.5625C12.5 25.6992 13.1992 25 14.0625 25H17.1875C18.0508 25 18.75 25.6992 18.75 26.5625V28.125H31.25V26.5625C31.25 25.6992 31.9492 25 32.8125 25H35.9375C36.8008 25 37.5 25.6992 37.5 26.5625V28.125H50V20.0439C50 19.2158 49.6709 18.4209 49.085 17.835ZM31.25 12.5H18.75V6.25H31.25V12.5ZM37.5 32.8125C37.5 33.6758 36.8008 34.375 35.9375 34.375H32.8125C31.9492 34.375 31.25 33.6758 31.25 32.8125V31.25H18.75V32.8125C18.75 33.6758 18.0508 34.375 17.1875 34.375H14.0625C13.1992 34.375 12.5 33.6758 12.5 32.8125V31.25H0V40.625C0 42.3506 1.39941 43.75 3.125 43.75H46.875C48.6006 43.75 50 42.3506 50 40.625V31.25H37.5V32.8125Z" fill="#9BBFB6"/>
</svg>
