<svg width="52" height="45" viewBox="0 0 52 45" fill="none" xmlns="http://www.w3.org/2000/svg">
<path d="M50.3012 21.0844L45.6075 12.9518C45.7078 12.7511 45.7832 12.5252 45.7832 12.2741C45.7832 11.5211 45.1557 10.8935 44.4027 10.8684L39.2068 1.8825C39.2571 1.73191 39.3072 1.58132 39.3072 1.43073C39.3072 0.627562 38.6546 0 37.8765 0C37.4247 0 37.0482 0.200816 36.772 0.527107H26.7822C26.5312 0.20091 26.1546 9.37458e-05 25.7029 9.37458e-05C25.2511 9.37458e-05 24.8746 0.20091 24.6235 0.527201H14.6838C14.4077 0.20091 14.0313 9.37458e-05 13.5794 9.37458e-05C12.8013 9.37458e-05 12.1487 0.627562 12.1487 1.43083C12.1487 1.58142 12.1989 1.75712 12.2491 1.88259L7.00308 10.9941C6.50118 11.2199 6.14968 11.6969 6.14968 12.2742C6.14968 12.3244 6.17479 12.3746 6.17479 12.4248L1.17978 21.0594C0.502087 21.1848 0 21.7622 0 22.465C0 23.1427 0.47688 23.72 1.12956 23.8706L6.30027 32.8064C6.25004 32.957 6.22492 33.0825 6.22492 33.2582C6.22492 33.9359 6.7018 34.5132 7.35448 34.6387L12.1989 43.0473C12.1487 43.1979 12.0985 43.3736 12.0985 43.5493C12.0985 44.3524 12.7511 44.98 13.5293 44.98C13.981 44.98 14.3576 44.7792 14.6086 44.478H24.6236C24.8746 44.7791 25.2762 44.9799 25.7029 44.9799C26.1295 44.9799 26.5312 44.7791 26.7822 44.4779H36.8223C37.0733 44.754 37.4498 44.9297 37.8514 44.9297C38.6546 44.9297 39.2822 44.2771 39.2822 43.4989C39.2822 43.3484 39.2572 43.2229 39.2069 43.0974L44.0514 34.6386C44.7039 34.5131 45.1809 33.9358 45.1809 33.2581C45.1809 33.1075 45.1558 32.9569 45.1056 32.8063L50.2512 23.8705C50.9037 23.745 51.4058 23.1677 51.4058 22.4649C51.4056 21.7872 50.9287 21.2099 50.3012 21.0844V21.0844ZM13.1024 40.7379L9.01114 33.6346H13.1024V40.7379ZM13.1024 32.8816H9.01114C8.98603 32.7812 8.9358 32.6808 8.88567 32.5804L13.1024 28.1377V32.8816ZM13.1024 27.0331L8.38358 32.0282C8.25811 31.9779 8.13254 31.9026 8.00706 31.8776L2.78631 22.8414C2.83645 22.7159 2.83645 22.5904 2.83645 22.4649C2.83645 22.3394 2.83645 22.2391 2.81133 22.1386L7.68087 13.7049C7.93191 13.6798 8.18286 13.6044 8.40879 13.4538L13.1025 18.3234V27.0331H13.1024ZM13.1024 17.4448L8.81033 13.0021C8.9358 12.8013 9.01114 12.5503 9.01114 12.2742C9.01114 12.2491 8.98603 12.1989 8.98603 12.1738L13.1024 10.6928V17.4448ZM13.1024 9.88956L9.01114 11.3705L13.1024 4.2922V9.88956ZM43.6999 13.5543L43.7752 13.6798L40.4619 29.3424L34.488 23.0422L43.6747 13.5292L43.6999 13.5543ZM26.0543 31.7771L27.1336 32.8816H25.0001L26.0543 31.7771ZM26.0292 30.7229L18.223 22.7159L25.6778 14.8093L33.4589 23.0171L26.0292 30.7229V30.7229ZM26.5312 31.2751L33.9609 23.5693L40.2862 30.246L39.734 32.8816H28.1125L26.5312 31.2751V31.2751ZM37.1738 2.66074C37.2741 2.71097 37.3745 2.7612 37.5 2.78631L42.9217 12.224V12.2742C42.9217 12.5503 42.997 12.8013 43.1225 13.0021L33.986 22.49L26.205 14.2822L37.1738 2.66074ZM36.3204 2.45993L25.6778 13.73L20.3313 8.0824L35.9186 2.45993H36.3204V2.45993ZM24.749 2.45993C25 2.71088 25.3263 2.86147 25.7029 2.86147C26.0795 2.86147 26.4057 2.71088 26.6567 2.45993H33.6848L19.7792 7.47996L15.0101 2.45993H24.749V2.45993ZM13.8556 2.98703L13.9559 2.78631C14.0406 2.76467 14.1244 2.73953 14.207 2.71097L19.0012 7.75621L13.8556 9.61359V2.98703ZM13.8556 10.4168L19.5533 8.35856L25.1506 14.2822L17.6959 22.1637L13.8556 18.223V10.4168ZM13.8556 19.1014L17.2692 22.6406L13.8556 26.23V19.1014V19.1014ZM13.8556 27.3344L17.7963 23.1678L25.5523 31.225L23.9458 32.8816H13.8556V27.3344V27.3344ZM14.5081 42.5201C14.3576 42.3695 14.1819 42.2691 13.9559 42.1938L13.8556 42.0432V33.6346H23.2179L14.6336 42.5201H14.5081ZM26.6818 42.5201C26.4308 42.2942 26.0795 42.1185 25.7029 42.1185C25.3263 42.1185 24.975 42.2942 24.7239 42.5201H15.6877L24.272 33.6346H27.8614L36.4457 42.5201H26.6818ZM37.9268 41.4156L37.5252 42.1184C37.3997 42.1436 37.2993 42.1937 37.1989 42.2439L28.8405 33.6345H39.5584L37.9268 41.4156V41.4156ZM39.1315 39.3323L40.3364 33.6346H42.3946L39.1315 39.3323ZM42.3946 32.8816H40.487L40.9136 30.8987L42.5201 32.6055C42.4699 32.6807 42.4197 32.7811 42.3946 32.8816V32.8816ZM48.5944 22.8163L43.3986 31.8776C43.2731 31.9277 43.1475 31.9779 43.0221 32.0532L41.0893 29.995L44.3273 14.6336L48.6194 22.0633C48.5944 22.1888 48.5442 22.3143 48.5442 22.4649C48.5442 22.5904 48.5693 22.6908 48.5944 22.8163Z" fill="#D4E09B"/>
</svg>
