<svg width="30" height="45" viewBox="0 0 30 45" fill="none" xmlns="http://www.w3.org/2000/svg">
<path d="M22.5011 14.9978C24.4899 14.9978 26.3973 14.2077 27.8036 12.8014C29.2099 11.3951 30 9.48773 30 7.4989C30 5.51007 29.2099 3.60269 27.8036 2.19638C26.3973 0.790061 24.4899 0 22.5011 0L7.5033 0C5.51563 0 3.60937 0.789598 2.20388 2.19509C0.798386 3.60058 0.0087881 5.50684 0.0087881 7.49451C0.0087881 9.48217 0.798386 11.3884 2.20388 12.7939C3.60937 14.1994 5.51563 14.989 7.5033 14.989C5.51446 14.989 3.60709 15.7791 2.20077 17.1854C0.794456 18.5917 0.00439514 20.4991 0.00439514 22.4879C0.00439514 24.4767 0.794456 26.3841 2.20077 27.7904C3.60709 29.1968 5.51446 29.9868 7.5033 29.9868C6.02015 29.9859 4.57006 30.4249 3.33639 31.2482C2.10272 32.0714 1.14088 33.242 0.572505 34.612C0.00412881 35.9819 -0.145258 37.4896 0.143237 38.9444C0.431732 40.3992 1.14515 41.7358 2.19328 42.7851C3.2414 43.8345 4.57716 44.5495 6.03163 44.8397C7.48611 45.1299 8.99397 44.9823 10.3645 44.4155C11.7351 43.8487 12.9069 42.8882 13.7316 41.6555C14.5563 40.4228 14.9969 38.9733 14.9978 37.4901V14.9978H22.5011ZM22.5011 14.9978C21.0188 14.9978 19.5698 15.4373 18.3374 16.2609C17.1049 17.0844 16.1443 18.2548 15.5771 19.6243C15.0098 20.9937 14.8614 22.5006 15.1506 23.9544C15.4398 25.4082 16.1536 26.7436 17.2017 27.7917C18.2498 28.8399 19.5852 29.5536 21.039 29.8428C22.4928 30.132 23.9997 29.9836 25.3691 29.4163C26.7386 28.8491 27.909 27.8885 28.7326 26.656C29.5561 25.4236 29.9956 23.9746 29.9956 22.4923C29.9954 20.5047 29.2057 18.5986 27.8003 17.1931C26.3948 15.7877 24.4887 14.998 22.5011 14.9978Z" fill="#D4E09B"/>
</svg>
