<svg width="50" height="50" viewBox="0 0 50 50" fill="none" xmlns="http://www.w3.org/2000/svg">
<path d="M49.5831 10.6541C49.3644 9.77229 48.2609 9.47346 47.6183 10.116L40.3566 17.3777L33.7277 16.2732L32.6232 9.64436L39.8849 2.38266C40.5314 1.73618 40.2199 0.634619 39.3322 0.413917C34.7052 -0.732564 29.6105 0.502784 25.9943 4.11801C22.1232 7.98909 21.0578 13.6004 22.6691 18.493L1.83032 39.3318C-0.610106 41.7722 -0.610106 45.7292 1.83032 48.1696C4.27074 50.6101 8.22776 50.6101 10.6682 48.1696L31.4894 27.3484C36.3839 28.9802 41.9845 27.9031 45.881 24.0066C49.5011 20.3865 50.7345 15.284 49.5831 10.6541V10.6541ZM6.25023 46.0935C4.95629 46.0935 3.90648 45.0437 3.90648 43.7497C3.90648 42.4548 4.95629 41.406 6.25023 41.406C7.54417 41.406 8.59397 42.4548 8.59397 43.7497C8.59397 45.0437 7.54417 46.0935 6.25023 46.0935Z" fill="#9BBFB6"/>
</svg>
